/* XPM */
static char *result[] = {
/* columns rows colors chars-per-pixel */
"32 32 172 2 ",
"   c #77260B",
".  c #743708",
"X  c #4F7815",
"o  c #4F7915",
"O  c #547E14",
"+  c #52781C",
"@  c #7F6305",
"#  c #597E22",
"$  c #6F6322",
"%  c #9B0001",
"&  c #9F0001",
"*  c #881406",
"=  c #8C1504",
"-  c #901601",
";  c #931901",
":  c #A70001",
">  c #AE0001",
",  c #A80401",
"<  c #B50001",
"1  c #BB0000",
"2  c #BD0000",
"3  c #BE0501",
"4  c #BA0A02",
"5  c #B60A0A",
"6  c #A11404",
"7  c #A60F10",
"8  c #A51C1B",
"9  c #BA1915",
"0  c #B7181A",
"q  c #9C2E09",
"w  c #8D3707",
"e  c #88350A",
"r  c #88370A",
"t  c #873B0B",
"y  c #883D0B",
"u  c #9C3009",
"i  c #962C11",
"p  c #972D11",
"a  c #A52E08",
"s  c #A73008",
"d  c #C50000",
"f  c #C90000",
"g  c #CD0001",
"h  c #C80401",
"j  c #CD0401",
"k  c #C40A0A",
"l  c #D30000",
"z  c #D80000",
"x  c #D90000",
"c  c #DE0000",
"v  c #D90501",
"b  c #DB0401",
"n  c #D90A0A",
"m  c #D61404",
"M  c #CB1414",
"N  c #DB1414",
"B  c #E50000",
"V  c #EC0702",
"C  c #E50A0A",
"Z  c #E90A0A",
"A  c #EA1610",
"S  c #EB1819",
"D  c #F01414",
"F  c #CE2425",
"G  c #E12424",
"H  c #E12E2F",
"J  c #FE2223",
"K  c #E13838",
"L  c #E83839",
"P  c #F43333",
"I  c #8A470D",
"U  c #995001",
"Y  c #8D5917",
"T  c #8E551A",
"R  c #915E1B",
"E  c #817505",
"W  c #92661D",
"Q  c #827A1F",
"!  c #916320",
"~  c #946223",
"^  c #DD5545",
"/  c #DD5645",
"(  c #578212",
")  c #5B8611",
"_  c #598413",
"`  c #5B8612",
"'  c #5B8712",
"]  c #5F861B",
"[  c #6B990C",
"{  c #6B990E",
"}  c #6B9A0E",
"|  c #6C9A0C",
" . c #6C9B0C",
".. c #6D9B0C",
"X. c #619013",
"o. c #699612",
"O. c #6F9A16",
"+. c #6E9C17",
"@. c #67901A",
"#. c #68941D",
"$. c #71A00D",
"%. c #74A40D",
"&. c #7AAB09",
"*. c #7BAB09",
"=. c #78A80A",
"-. c #7CAD09",
";. c #7CA90E",
":. c #7FAC0E",
">. c #7EB20B",
",. c #74A21B",
"<. c #75A21F",
"1. c #7DA61A",
"2. c #678D21",
"3. c #698C29",
"4. c #6D9128",
"5. c #75982B",
"6. c #73A120",
"7. c #958701",
"8. c #908604",
"9. c #8BBC06",
"0. c #8DBF04",
"q. c #81B30B",
"w. c #82B60E",
"e. c #87AA1C",
"r. c #86B410",
"t. c #88B812",
"y. c #8CBB12",
"u. c #8FB31E",
"i. c #95BB1F",
"p. c #83AC25",
"a. c #88AF2E",
"s. c #92B821",
"d. c #82A23A",
"f. c #8DC003",
"g. c #93C701",
"h. c #96CA02",
"j. c #97CC02",
"k. c #95C806",
"l. c #99CE01",
"z. c #99CD02",
"x. c #9BCD04",
"c. c #99C811",
"v. c #A7DE03",
"b. c #A8DF04",
"n. c #ADE504",
"m. c #B2E900",
"M. c #B4EC00",
"N. c #B7F000",
"B. c #BBF400",
"V. c #99C323",
"C. c #9FC42C",
"Z. c #9FC235",
"A. c #A4C92D",
"S. c #C3FD00",
"D. c #A29F44",
"F. c #87A640",
"G. c #9DB944",
"H. c #9FBB47",
"J. c #A6A445",
"K. c #A1BD4E",
"L. c #A0BB5E",
"P. c #9FC242",
"I. c #A4C344",
"U. c #A0C24B",
"Y. c #A8C44F",
"T. c #A9C64F",
"R. c #ADCC4F",
"E. c #A4C351",
"W. c #ACCA50",
"Q. c #AECB54",
"!. c #AAC35E",
"~. c #B4CF60",
/* pixels */
"i.u.i.i.u.i.i.A.i.i.u.u.i.i.u.i.i.e.i.u.i.i.i.i.C.i.i.i.i.i.i.u.",
"i.i.u.u.i.u.i.i.C.i.A.i.i.i.i.i.u.i.i.u.i.e.i.i.u.A.i.A.i.u.u.i.",
"u.u.u.i.i.u.i.u.i.i.i.e.i.u.i.A.i.i.u.i.i.u.i.i.u.i.i.i.u.i.i.u.",
"u.i.i.C.i.i.u.i.e.i.u.e.i.u.i.C.i.u.A.u.i.i.u.i.i.i.u.i.e.i.A.i.",
"i.A.C.i.i.u.i.i.i.i.u.i.i.i.i.i.u.i.i.i.C.A.i.u.i.e.u.u.i.u.C.A.",
"i.A.i.i.i.u.i.A.A.i.i.i.A.i.i.i.i.e.i.u.i.C.i.A.i.e.u.i.e.i.i.C.",
"i.i.i.u.e.i.u.i.C.A.i.A.i.e.u.i.u.e.u.i.i.i.C.u.u.i.i.i.u.i.i.u.",
"i.e.i.i.e.u.i.u.i.C.u.A.u.e.i.u.i.i.u.u.i.i.i.i.i.u.i.i.i.u.u.i.",
"u.i.u.i.u.i.i.u.u.u.u.i.i.u.u.e.i.u.i.i.e.u.i.u.i.C.i.i.A.i.i.u.",
"i.u.i.u.C.A.i.i.i.u.i.Q.R e q a s u r ! K.i.i.i.i.i.A.u.u.i.i.i.",
"u.e.u.i.i.C.A.i.A.i.Q.T ^ 9 b h j v , 6 ~ Y.i.u.i.i.i.i.i.u.u.i.",
"u.e.i.i.i.i.C.A.i.i.Y / 8 C P 0 % z g : m W i.u.i.u.i.u.e.u.i.i.",
"i.u.u.i.u.i.u.i.i.u.y A L 7 5 n B x M H V t u.i.u.e.u.i.i.i.i.i.",
"i.u.i.i.u.i.u.e.i.i.I 4 D Z 1 1 d 1 k D 4 I i.C.i.i.u.i.i.A.i.u.",
"i.i.A.i.i.A.i.e.u.i.J.i 3 < F K K G c 3 p D.i.i.C.A.i.i.A.C.i.i.",
"u.i.i.A.i.A.i.i.i.C.~.Q = & N J J S 2 * $ !.i.i.i.C.A.i.C.i.i.u.",
"i.u.i.u.i.i.i.u.i.i.P.t.8.; 2 l f > - E O.d.i.u.i.u.C.i.u.i.e.i.",
"i.u.i.i.i.e.u.i.i.i.U.y.j.7.U w   . @  .1.F.i.i.i.i.i.i.i.u.i.i.",
"i.i.i.A.i.i.i.u.i.Z.R.6.} =.0...o o [ ( ] L.Z.i.u.i.i.u.i.i.i.e.",
"i.A.C.i.i.u.i.e.i.I.c.w.o._ { *.&.X.' g.f.@.E.i.i.u.e.u.i.C.i.i.",
"A.C.i.i.u.u.i.e.i.s.x.N.S.m.$.X ) -.>.z.9.r.5.i.u.i.e.i.i.i.A.i.",
"C.i.i.i.i.i.i.u.i.W.V.k.n.B.M.l.| ` h.;.# 2.W.u.i.u.i.u.u.i.C.i.",
"i.u.i.u.i.i.A.i.i.u.W.p.<.q.b.v.%.O :.3.H.u.i.i.e.u.i.i.e.i.i.u.",
"u.i.i.i.u.i.C.i.A.i.u.i.T.a.,.+.#.+ 4.G.i.i.i.i.i.i.i.i.i.u.i.i.",
"i.e.i.e.u.i.i.u.u.i.i.e.u.i.i.i.i.i.i.i.i.A.i.u.i.i.A.i.i.i.u.i.",
"i.i.u.e.i.i.u.i.i.u.i.i.i.u.i.i.u.e.u.i.i.i.C.A.i.A.C.i.i.u.e.i.",
"i.u.i.i.i.i.i.i.u.i.A.i.i.i.i.i.u.i.i.i.u.u.i.C.i.C.u.u.i.i.i.u.",
"i.i.C.i.i.A.i.A.i.u.C.A.i.i.A.i.i.i.i.u.i.e.i.i.i.u.u.i.i.u.i.i.",
"i.A.u.i.i.C.A.i.i.u.i.C.i.A.u.u.i.A.i.i.i.i.i.i.u.i.e.i.i.A.i.u.",
"A.C.i.i.u.i.C.u.u.u.i.i.u.i.i.e.i.i.C.A.i.i.A.i.i.i.e.u.i.i.A.i.",
"C.i.u.i.i.i.u.i.i.e.i.i.i.i.u.i.u.i.i.C.i.A.i.i.e.u.i.i.u.i.C.i.",
"i.i.i.u.i.u.u.i.u.i.i.A.i.u.u.i.u.i.u.i.u.i.u.u.i.i.u.i.i.u.u.i."
};
