/* XPM */
static char *result[] = {
/* columns rows colors chars-per-pixel */
"32 32 200 2 ",
"   c #607136",
".  c #647537",
"X  c #657836",
"o  c #677937",
"O  c #687C37",
"+  c #3B3B4F",
"@  c #3C3C4F",
"#  c #3C3D4F",
"$  c #3D3E4E",
"%  c #3E3F4E",
"&  c #3A3A50",
"*  c #3B3B50",
"=  c #3D3D52",
"-  c #3F414D",
";  c #3F424D",
":  c #3F414E",
">  c #41444B",
",  c #41454B",
"<  c #42464B",
"1  c #40434C",
"2  c #41434C",
"3  c #40424D",
"4  c #41434E",
"5  c #41444C",
"6  c #42454D",
"7  c #50454F",
"8  c #4E5742",
"9  c #505943",
"0  c #525B43",
"q  c #535C46",
"w  c #555F47",
"e  c #414054",
"r  c #474558",
"t  c #47475D",
"y  c #47485D",
"u  c #48495D",
"i  c #505650",
"p  c #565C53",
"a  c #664F4F",
"s  c #586540",
"d  c #5A6645",
"f  c #5B664D",
"g  c #5B644E",
"h  c #5E6A49",
"j  c #5D6751",
"k  c #5F6951",
"l  c #7A614A",
"z  c #667741",
"x  c #697A42",
"c  c #6E7659",
"v  c #6F7859",
"b  c #717F51",
"n  c #737F57",
"m  c #605C64",
"M  c #605D64",
"N  c #615B69",
"B  c #68616D",
"V  c #6E6772",
"C  c #825E4D",
"Z  c #825C4E",
"A  c #815E53",
"S  c #845F50",
"D  c #A85F46",
"F  c #886B4D",
"G  c #8C6A55",
"H  c #8A6A59",
"J  c #AA6247",
"K  c #AA6347",
"L  c #AD6749",
"P  c #AE6749",
"I  c #A66E4D",
"U  c #AE6A49",
"Y  c #AF6B4A",
"T  c #AF6A4B",
"R  c #B06C4A",
"E  c #B06C4B",
"W  c #B06D4B",
"Q  c #B16E4B",
"!  c #B16C4C",
"~  c #B26F4C",
"^  c #B36F4D",
"/  c #A7704C",
"(  c #B4704D",
")  c #B5724E",
"_  c #B5754D",
"`  c #B5744E",
"'  c #B6744F",
"]  c #B7754F",
"[  c #B7784E",
"{  c #B8794F",
"}  c #AA7250",
"|  c #AF7953",
" . c #B97850",
".. c #B97950",
"X. c #BA7951",
"o. c #B97B50",
"O. c #BB7A51",
"+. c #BA7C51",
"@. c #BC7D51",
"#. c #BC7C52",
"$. c #BC7D52",
"%. c #BD7E53",
"&. c #BE7F53",
"*. c #738C2E",
"=. c #77912F",
"-. c #748D31",
";. c #758352",
":. c #7A895A",
">. c #87AA1C",
",. c #8FB31E",
"<. c #95BB1F",
"1. c #92B02C",
"2. c #97B72C",
"3. c #96B828",
"4. c #9CBF2E",
"5. c #9FC42C",
"6. c #A4C92D",
"7. c #808E5F",
"8. c #AD8F4B",
"9. c #BA984A",
"0. c #BD8053",
"q. c #BE8053",
"w. c #BE8153",
"e. c #BF8153",
"r. c #B68258",
"t. c #B78459",
"y. c #B8845A",
"u. c #BA885C",
"i. c #9AA657",
"p. c #9DAC52",
"a. c #9EA95A",
"s. c #9DAA5A",
"d. c #9DA85C",
"f. c #A0AC5D",
"g. c #9FA761",
"h. c #9DA366",
"j. c #9FA664",
"k. c #9FA665",
"l. c #A0A666",
"z. c #AABD61",
"x. c #A2A078",
"c. c #A3A07A",
"v. c #ABAE7D",
"b. c #AEB17D",
"n. c #C08254",
"m. c #C18456",
"M. c #C48857",
"N. c #C78C58",
"B. c #C78C59",
"V. c #C8905B",
"C. c #CC945D",
"Z. c #C9B258",
"A. c #CBB65B",
"S. c #CDB85B",
"D. c #CEAA6E",
"F. c #D1BE62",
"G. c #DBB06B",
"H. c #DCB06C",
"J. c #DFB86F",
"K. c #CFAC70",
"L. c #DFB870",
"P. c #E0B870",
"I. c #E1B972",
"U. c #E2BB74",
"Y. c #ACCA4F",
"T. c #ACC759",
"R. c #B1CD5A",
"E. c #B3CE5E",
"W. c #B4D159",
"Q. c #ADC261",
"!. c #AFC561",
"~. c #ADC265",
"^. c #D3C066",
"/. c #D5C369",
"(. c #D1C26F",
"). c #D6C570",
"_. c #D8C771",
"`. c #DAC971",
"'. c #DDCD75",
"]. c #E5C07A",
"[. c #E8C37D",
"{. c #A39D80",
"}. c #A49E80",
"|. c #A5998D",
" X c #A5988F",
".X c #A6998F",
"XX c #A69A8F",
"oX c #A89D8F",
"OX c #A79794",
"+X c #A79796",
"@X c #A69990",
"#X c #A79B90",
"$X c #A69992",
"%X c #A7A182",
"&X c #ABAA81",
"*X c #ACAC80",
"=X c #DEBF87",
"-X c #E9C580",
";X c #F0CE8C",
":X c #F0CE8D",
/* pixels */
"<.,.<.<.,.<.<.6.<.<.,.,.<.<.,.<.<.>.<.,.<.<.<.<.5.<.<.<.<.<.<.,.",
"<.<.,.,.<.,.<.<.5.<.6.<.<.<.<.<.,.<.<.,.<.>.<.<.,.6.<.6.<.,.,.<.",
",.,.z f (._.`._.`.`.`.).F.A./.'.^.S.A.S.S.A.S.S.A.S.Z.9.8.f x ,.",
",.<.f u =X;X;X;X;X;X;X;X].J.-X:X[.J.L.J.J.J.J.J.J.J.G.N.t.y k <.",
"<.6.j t K.U.U.U.U.U.U.U.I.P.I.U.I.P.P.P.P.P.P.P.P.P.H.B.y.t j 6.",
"<.6.g t D.P.P.P.P.P.P.P.P.P.P.P.P.P.P.P.P.P.P.P.P.P.H.B.y.t g 5.",
"<.<.q = u.C.C.C.C.C.C.C.C.C.C.C.C.C.C.C.C.C.C.C.C.C.V.{ } = q ,.",
"<.>.0 + r.B.B.B.B.B.B.B.B.B.B.B.B.B.B.B.B.B.B.B.B.B.M._ I + 9 <.",
",.<.9 + r.B.B.B.B.B.B.B.B.B.B.B.B.B.B.B.B.B.B.B.B.B.M._ I + 0 ,.",
"<.,.0 + r.B.B.B.B.B.B.B.B.B.B.B.B.B.B.B.B.B.B.B.B.B.M._ I + 0 <.",
",.>.9 + r.B.B.B.B.B.B.B.e.+.+.+.] ! O.B.B.B.m.! ] B.M._ I + 9 <.",
",.>.0 + r.B.B.B.B.B.B.B.@._ _ _ Y D ) B.B.B.&.D T B.M._ I + 0 <.",
"<.,.9 + r.B.] ^ ^ ^ ..@.~ L L L U W E ^ ' @.` D J ^ ( _ I + 0 <.",
"<.,.0 + r.B.P D D D Q _ L D D D U _ R D L _ Q D D D K _ I * 0 ,.",
"<.<.w + r.B.#.X.X.X.%.n.$.X.X.X.$.n.q.X.#.n.q.X.X.X. ._ I * 0 <.",
",.<.0 * r.B.B.B.B.B.B.B.B.B.B.B.B.B.B.B.B.B.B.B.B.B.M._ I + 0 ,.",
"<.,.0 + | w.w.w.w.w.w.w.w.w.w.w.w.w.w.w.w.w.w.w.w.w.0._ I + 8 <.",
"<.,.s 5 I _ _ _ _ _ _ _ _ _ _ _ _ _ _ _ _ _ _ _ _ _ _ _ / > s <.",
"<.<.=.7.l Z Z Z Z Z Z Z Z Z Z Z Z Z Z Z Z Z Z Z Z Z Z C F :.=.>.",
"<.6.5.Y.h < 5 1 5 2 5 ; @ & & & & & & & $ 3 6 5 5 2 1 , d W.<.<.",
"6.5.<.<.*.X o   o   . b i # 7 a a a 7 $ p ;.. o . o   O -.<.6.<.",
"5.<.<.<.<.<.<.,.<.<.<.T.n 4 Z _ _ _ Z - n R.<.,.<.,.<.,.,.<.5.<.",
"<.,.<.,.<.<.6.<.<.,.2.Q.v : S o.[ _ Z % c z.2.<.>.,.<.<.>.<.<.,.",
",.<.<.<.,.<.5.<.6.4.d.}.M & G B.w._ Z & m }.f.4.<.<.<.<.<.,.<.<.",
"<.>.<.>.,.<.<.,.1.!.*X XN & G B.w._ Z & N $X&X~.3.<.6.<.<.<.,.<.",
"<.<.,.>.<.<.,.<.a.{.@X+XN & G B.w._ Z & N +X$X%Xs.6.5.<.<.,.>.<.",
"<.,.<.<.<.<.<.<.h.@X+X+XV r H r.| I A r B +X+X@Xl.5.,.,.<.<.<.,.",
"<.<.5.<.<.6.<.6.j.|.+X+X+X+XB & & & B +X+X+XOX|.k.,.,.<.<.,.<.<.",
"<.6.,.<.<.5.6.<.p.c..X+X+X+XV e e e B +X+XOXoXx.i.<.>.<.<.6.<.,.",
"6.5.<.<.,.<.5.,.,.T.v.@X+X+X+X+X+X+X+X+X+X@Xb.E.<.<.>.,.<.<.6.<.",
"5.<.,.<.<.<.,.<.<.>.g.XX+X+X+X+X+X+X+X+X+X#Xg.<.>.,.<.<.,.<.5.<.",
"<.<.<.,.<.,.,.<.,.<.<.6.<.,.,.<.,.<.,.<.,.<.,.,.<.<.,.<.<.,.,.<."
};
