/* XPM */
static char *result[] = {
/* columns rows colors chars-per-pixel */
"32 32 219 2 ",
"   c #7B7239",
".  c #6F6535",
"X  c #553376",
"o  c #553977",
"O  c #53356E",
"+  c #665C5B",
"@  c #7B6D57",
"#  c #5C4A66",
"$  c #5C4772",
"%  c #614F6A",
"&  c #645568",
"*  c #72557E",
"=  c #634C78",
"-  c #746F78",
";  c #CD5903",
":  c #ED740C",
">  c #D27302",
",  c #8D7A4C",
"<  c #8A7566",
"1  c #8A7375",
"2  c #7E885D",
"3  c #7F8860",
"4  c #A69713",
"5  c #A78810",
"6  c #87AA1C",
"7  c #8FB31E",
"8  c #95BB1F",
"9  c #B7A512",
"0  c #B7B00E",
"q  c #8B9636",
"w  c #919F3E",
"e  c #B99F33",
"r  c #97BA2B",
"t  c #9ABB35",
"y  c #918815",
"u  c #D69800",
"i  c #D4B205",
"p  c #E6BB00",
"a  c #C7A92F",
"s  c #9FC42C",
"d  c #9EC132",
"f  c #A4C92D",
"g  c #FAD301",
"h  c #DFC53A",
"j  c #E7CB36",
"k  c #8E8D46",
"l  c #8F8C4A",
"z  c #8C824F",
"x  c #93874C",
"c  c #929449",
"v  c #888954",
"b  c #928553",
"n  c #97865A",
"m  c #9D895B",
"M  c #859356",
"N  c #9A9255",
"B  c #AA9E5E",
"V  c #9AA44C",
"C  c #9BA948",
"Z  c #9BA653",
"A  c #9FBB49",
"S  c #A6A758",
"D  c #B1A55F",
"F  c #A4B757",
"G  c #A3BB4D",
"H  c #838679",
"J  c #949279",
"K  c #9C8369",
"L  c #A28D67",
"P  c #A89465",
"I  c #BC9B70",
"U  c #B0946F",
"Y  c #AFA26E",
"T  c #B3A662",
"R  c #BDAA69",
"E  c #B8A668",
"W  c #BCA87B",
"Q  c #A7BC61",
"!  c #D3B84F",
"~  c #C2AE6D",
"^  c #C7A47C",
"/  c #CCBC7B",
"(  c #C8B87A",
")  c #AAC94C",
"_  c #A6C447",
"`  c #AAC556",
"'  c #B5D15B",
"]  c #B4CE61",
"[  c #B1C963",
"{  c #E1C645",
"}  c #DBCD7B",
"|  c #59368C",
" . c #613E98",
".. c #603D8A",
"X. c #5D3BB4",
"o. c #5C36AB",
"O. c #603CAE",
"+. c #613BB7",
"@. c #3C5581",
"#. c #444392",
"$. c #64439C",
"%. c #695686",
"&. c #7F6197",
"*. c #5C43BD",
"=. c #6C53BE",
"-. c #755CBE",
";. c #5C59D0",
":. c #715BDD",
">. c #694EDB",
",. c #526ECE",
"<. c #706CD4",
"1. c #6C55E6",
"2. c #715CE2",
"3. c #6F5AF5",
"4. c #5B7DE0",
"5. c #7766E6",
"6. c #7968F3",
"7. c #757BE7",
"8. c #8B7988",
"9. c #837592",
"0. c #927DB0",
"q. c #8277E5",
"w. c #2F85A3",
"e. c #5A8B9F",
"r. c #6D8A8B",
"t. c #78B39E",
"y. c #7786A4",
"u. c #6E95B2",
"i. c #1A82D9",
"p. c #3E97D9",
"a. c #69A9DA",
"s. c #4C92EE",
"d. c #648BFC",
"f. c #63B2FF",
"g. c #75B6F8",
"h. c #5095CA",
"j. c #888786",
"k. c #97878E",
"l. c #BE9B80",
"z. c #A89791",
"x. c #BCAA85",
"c. c #A0A09D",
"v. c #BFB08B",
"b. c #9B8EAD",
"n. c #9DA6AF",
"m. c #9CA2B0",
"M. c #83A4B7",
"N. c #B4B4AB",
"B. c #B8B7B4",
"V. c #B9B5B5",
"C. c #B4A6AE",
"Z. c #AA96B1",
"A. c #CAAC85",
"S. c #CAB88B",
"D. c #DABC99",
"F. c #CBB78F",
"G. c #C1BFAD",
"H. c #BFC0B8",
"J. c #ABC7BD",
"K. c #CCC187",
"L. c #D2C584",
"P. c #D5C887",
"I. c #D8CC8C",
"U. c #D4C98A",
"Y. c #DCD18B",
"T. c #DBCC93",
"R. c #DBC89B",
"E. c #DED695",
"W. c #CDC396",
"Q. c #E3DB9B",
"!. c #E1CF85",
"~. c #DBCEA9",
"^. c #C1C0BD",
"/. c #D4C4BD",
"(. c #E3CBA1",
"). c #E2DCA2",
"_. c #E9D5A8",
"`. c #E0D4B9",
"'. c #EDE3B5",
"]. c #F6E5BC",
"[. c #E6E0AB",
"{. c #A49ACD",
"}. c #88BDDE",
"|. c #ADADD2",
" X c #AFB8D1",
".X c #8782FC",
"XX c #8C88FA",
"oX c #9497F6",
"OX c #80BCE0",
"+X c #95ABFF",
"@X c #BDBDE2",
"#X c #A0A7FF",
"$X c #A5B7F9",
"%X c #B2AAE0",
"&X c #9EC3CF",
"*X c #B5C3D0",
"=X c #8AC6FB",
"-X c #9EC0FF",
";X c #9EC5E2",
":X c #AEC2FE",
">X c #B3D5F9",
",X c #B2D1FF",
"<X c #D3D2CE",
"1X c #DBDACE",
"2X c #C4C5D6",
"3X c #DBDBD8",
"4X c #CECCCC",
"5X c #D8E4CB",
"6X c #EFECC6",
"7X c #F6E7C5",
"8X c #FDF0C5",
"9X c #E3E1D9",
"0X c #C8D5E5",
"qX c #C2C2E0",
"wX c #D5E0F3",
"eX c #EAEAE9",
"rX c #F0EFEE",
"tX c #FEFEFE",
"yX c #E8E9FC",
/* pixels */
"8 8 7 7 8 7 8 8 s 8 s ) V k k     c k V ) 6 8 8 7 f 8 f 8 7 7 8 ",
"7 7 7 8 8 7 8 7 r ) C k . x @ 9 4   z . l V ) 8 7 8 8 8 7 8 8 7 ",
"7 8 8 s 8 8 7 8 A V T   i y 9 g g 4 4 0   T V ) 8 8 7 8 6 8 f 8 ",
"8 f s 8 8 7 8 ) V T K.h ; > i : : p ; > h L.D V _ 6 7 7 8 7 f f ",
"8 f 8 8 8 7 ) Z E L., 5 i { !.!.!.!.{ u 5 z L.D C A 7 8 6 8 8 s ",
"8 8 8 7 6 8 c D L.Y.a ! Q.'.6X6X6X8X6XQ.! e Q./ D w 8 8 7 8 8 7 ",
"8 6 8 8 7 ` c T I.E.!.Y.Q.).).).).).).).E.} Q.Y.E c ) r 8 7 7 8 ",
"7 8 7 8 ` C D L.E.Q./ P.Q.L.P.E.Q.P.L.E.P./ Q.E.L.P Z ) f 8 8 7 ",
"8 7 ) q c b E Y./ Y.( P.E./ L.E.E.P./ E.P.( Y./ Y.E x l q ) 8 8 ",
"7 6 w W F.I b S.( I./ P.Q./ L.Q.E.L./ Q.P./ I.( K.b I F.^ w 7 8 ",
"7 6 A N D.(.A.T.I./ T.S.( T.I./ ( T.R./ L.T./ I.T.A.R.D.N G 8 8 ",
"8 7 t G N A.D.T.Q.Q.n.y.y.H.'.)._.'.G.y.y.m.R.Q.Q.D.A.m F s 8 8 ",
"8 7 8 ] x , ^ I.Q.m.&Xe.M.9X8X8X8X8X6XM.e.&Xn.Q.I.^ , l ] f 8 7 ",
"8 8 f G b m N ~.Q.y.0Xe.t.6X8X8X8X8X5Xt.r.0Xu.).R.m m N F s 8 8 ",
"7 8 _ c P B U `.).B.eXu.w.J.].8X8X8XJ.w.u.wXB.[.'.Y P P c ) 8 7 ",
"8 7 F B ~ m U.[.).(.7Xa.i.&X8X8X8X8X&Xi.a.7XQ.E.[.W.n R B C 6 8 ",
"8 7 q E R n W Y.E.W D. X}.5X8X8X8X8X5XOX XF.W Q.Y.( n R R k s 8 ",
"8 8 x ~ L.N R I.E.1 K F._.].7X].].].]._.F.K 1 Q.I.E N / R k 8 6 ",
"8 f c ~ E.- P I.E.C.8.L U I x.x.x.A.l.U L k.Z.E.U.P < Y.E c 8 8 ",
"f f k D z...&.A.E.C.{.y.r.r.J P L J r.r.y.{.B.Y.F.&.| z.R k s 8 ",
"s 8 k E X +.oXA.T.&.>.d.f.=X0X1X1X0X=Xf.d.>.&.I.( oXX.X R k s 8 ",
"8 7 C B X <.%XG.W.* X.6.+X$X:X,X:X$X$X+X7.*.* W.C.@X:.X D C 8 7 ",
"7 8 ) S O z.7.+Xk.& #.;.5.q.5.q.oX:.q.5.;.#.$ z.oX7.c.O V _ 8 8 ",
"8 6 8 ` # A.a.;X%.#.p.,.-.-.=.:.:.=.-.-.,.p.#.* ;Xa.l.% ] 8 7 8 ",
"8 8 t Z = `.7X^ @ h.s.g.>X>X$X#X#X$X>X,Xg.s.h.@ ^ 8X`.$ F t 6 r ",
"8 r F & X./.(.< o ,.;.s.OX*X0XwXwX0X*X=Xs.;.,.X < _.4XO.& F r 7 ",
"8 F & O.5. Xj.| o.+.2..X%X<X9X3X9X3X<X|.q.1.X.o.o j. X6.O.% F 8 ",
"r + O.3.XXyXj.$.1.3..XoX@XeXtXtXtXtXeXqXoX.X3.>.$.j.yXXX1.O.+ 7 ",
"' & 5.6.oX*Xj.$.1.3.q.%X2XG.<X3X3X4XG.^.|..X3.1.$.H 2XoX6.5.& 8 ",
"f M N.<X3XJ %  .>.3.XX@XeXtXtXtXtXtXtXyX2X.X3.1. .% H <X<XN.M 8 ",
"8 ) M 2 2 [ [ @ # | b.N.4X1XeXtXtXeX3X4XN.b. .# @ ] [ M 2 M ` 8 ",
"tXtXtXtXtXtXtXtXtX0.- - c.B.B.B.B.B.V.c.- - 0.tXtXtXtXtXtXtXtXtX"
};
