/* XPM */
static char *result[] = {
/* columns rows colors chars-per-pixel */
"32 32 132 2 ",
"   c #3B453C",
".  c #3F4C3D",
"X  c #5D7F15",
"o  c #58761F",
"O  c #5B7A1B",
"+  c #414E3A",
"@  c #44533C",
"#  c #4A5C3C",
"$  c #4E6622",
"%  c #50672F",
"&  c #556F2B",
"*  c #577424",
"=  c #597621",
"-  c #567129",
";  c #4F6034",
":  c #4D633C",
">  c #526334",
",  c #546A33",
"<  c #586B37",
"1  c #51643A",
"2  c #54693B",
"3  c #5A6E3A",
"4  c #607635",
"5  c #657D35",
"6  c #687E36",
"7  c #61773B",
"8  c #637B39",
"9  c #6A7E3E",
"0  c #495544",
"q  c #505C49",
"w  c #5E6D45",
"e  c #57634E",
"r  c #5F6C48",
"t  c #657448",
"y  c #6A794D",
"u  c #5F8113",
"i  c #648906",
"p  c #688E04",
"a  c #61840C",
"s  c #678D0B",
"d  c #6D9504",
"f  c #6D9409",
"g  c #739C05",
"h  c #70970C",
"j  c #739A0B",
"k  c #618412",
"l  c #698D15",
"z  c #61811C",
"x  c #698A1D",
"c  c #6F9410",
"v  c #749810",
"b  c #799E17",
"n  c #77A105",
"m  c #79A307",
"M  c #7CA50B",
"N  c #7FA80B",
"B  c #7EA019",
"V  c #648125",
"C  c #769621",
"Z  c #668132",
"A  c #6D8337",
"S  c #6D8338",
"D  c #728A37",
"F  c #71853F",
"G  c #758C3C",
"H  c #7D953D",
"J  c #7FA121",
"K  c #778D45",
"L  c #74874A",
"P  c #798E4B",
"I  c #7C914A",
"U  c #798B51",
"Y  c #82AB0E",
"T  c #81A716",
"R  c #85AD12",
"E  c #88AF15",
"W  c #80A51A",
"Q  c #87AA1C",
"!  c #8AB215",
"~  c #8FB31D",
"^  c #90B71B",
"/  c #95BB1F",
"(  c #85A921",
")  c #8BAD27",
"_  c #88A929",
"`  c #96BD21",
"'  c #98BF22",
"]  c #96B931",
"[  c #9BC225",
"{  c #9EC42A",
"}  c #A0C62A",
"|  c #A3CA2D",
" . c #A6CD31",
".. c #A8CF32",
"X. c #A1C238",
"o. c #ABD235",
"O. c #AFD639",
"+. c #B0D73A",
"@. c #B1D83B",
"#. c #849D42",
"$. c #81994F",
"%. c #808F5E",
"&. c #869A53",
"*. c #85A043",
"=. c #94AF44",
"-. c #9AB644",
";. c #9EBC44",
":. c #9EBA48",
">. c #8DA654",
",. c #92A959",
"<. c #9EB55F",
"1. c #A0BC4C",
"2. c #A5BF55",
"3. c #808E65",
"4. c #849363",
"5. c #87946B",
"6. c #9BB161",
"7. c #A0B663",
"8. c #A4BB64",
"9. c #A1B56F",
"0. c #A3B576",
"q. c #A4C147",
"w. c #A5C24B",
"e. c #ABC94E",
"r. c #A9C553",
"t. c #AECB53",
"y. c #ACC75B",
"u. c #B1CE55",
"i. c #B1CD5A",
"p. c #B9D55E",
"a. c #AAC069",
"s. c #BCD764",
/* pixels */
"/ ~ ` ^ ~ ` ` } ` ` ~ ~ ^ u.$.2 # %.e.~ / / / / } / / / / ` / ~ ",
"/ ` ~ ~ ` ~ ^ ` { ` p._ y.] j i i O ,.,.#.1./ / ^  ./ | / ^ ~ / ",
"~ ~ ~ ` ` ~ ` ~ e.W m Y E ` T E R g l 5 z 3 , G 1./ / / ~ / ` ~ ",
"~ ` ` { / / ~ i.W M ! | O.O. .E /  ./ Y d a O > K e.^ / Q / | ` ",
"/ | { / / 2.W T ^  .O.O.@.@.O.} } ..O. ./ E l - X 8 6 1./ ~ { | ",
"/ | ` ` / W Y ! / | O.O.@.@.@.....O.o. ./ ! R b T O < D Q ` ` { ",
"/ / / ~ 2.{ ' ..o.[ | O.@.o. .} / }  .} ! Y / ^ / E c C 2./ / ~ ",
"` Q / 2.W ` o.+.@.| ' | O.O.O.o. .} ^ ! / / | } [ ~ c & #.1.) / ",
"~ ` ~ ( ~  .O.+...} } ..O.@.@.@.O.../ E ! '  .O.o.[ E O < G ^ ^ ",
"/ ~ 2.T ^  .O.o.} /  .O.@.@.@.@.o...} ! E } ..O.o.o./ X > < t.` ",
"~ Q _ Y Y /  .[ E / o.+.@.o.O.o...} ' / / ..o.o.o...[ h O 1 G ` ",
"~ 1.v Y / | o.} ^ /  .O.o.o.o.o.} } } ^ ! | O.o...} / g a 1 8./ ",
"/ #.j / o.+.@.O. .E /  . . ...| ^ ! / ! Y ! |  .} ^ Y s - O $.1.",
"/ <.v ' O.o.+.o. .^ / [ } } ^ ^ R Y ^ / ^ / } / ! Y d d O - @ #.",
"/ >.g '  .| o.} [ }  .....| ^ R ! ! [  . .} ' / Y g d d X + + 2.",
"~ 6 d R ' } ' / ' ..O.o.O... .^ ! } O.@.O. .} ' ^ E g X = $ 1 &.",
"/ ,.V d N [ [ ! [ O.o.o.o.o.o.[ [ | O.O.o. .[ ! ! R Y p O a : , ",
"/ 6.V = f N M M ` ........{ { / [ | |  . .| / ! Y m E g i = @ 3 ",
"X.Z i * a d d n ^ [ { | { [ [ ^ / } } } o.o.o.} / Y n d a : @ < ",
"i.7 i d i d N N R ^ ! [ [ ' / ^ / [ } o.O. .o.| } ! g a O - : > ",
"s., u n d d N N m R ! R [ ! ! N Y / |  .o.o.| [ ^ B O X - o @ < ",
"u.: : d g d j ! m n R R ^ [ ! Y Y Y / | } [ / ! R f & - i : + I ",
"^ L : u i d u d d g n ! [ { { [ ^ ! Y ! ! Y n g p a a a O # # 7.",
"~ t.L : u i * u d p g ! ^ [ [ / R R Y n g d g g f O , a # + : H ",
"/ Q a.# # O i - u u f m R M N N Y Y f s g f i s O 1 - O : # ; t.",
"/ / D :   : O a * : = d n d d n g d X - a a a O : , X : # @ 5 / ",
"/ ~ t.S . # : : O ; : O u d d i i u a O , 1 1 # : : : # @ 8 e.~ ",
"/ / { t.9 0 # : # @ @ : : O a a - : : & a O # + : q . @ 4 -./ / ",
"` | ~ ` e.0.e # 0 # + @ : : : : : : @ @ # # # # + q 5.6 ;.| / ^ ",
"} { ` ^ ~ t.9.3 3.r : @   # : > @   @ : # + @ r 5.6 =.Q / / | ` ",
"{ ` ~ ` ` ` ~ ` / =.F %.y ; # > ; > ; > t 3.6 1.Q ~ ` ` ~ ` { ` ",
"` ` / ~ / ~ ~ ` ^ / / | / ~ ~ ` ~ / ~ / ~ / ^ ^ ` ^ ~ ` ^ ~ ~ ` "
};
